# xmcd
# 
# Track frame offsets:
#     150
#     31484
#     52250
#     74209
#     90012
#     106634
#     135537
#     157936
#     198451
#     218039
#     229945
#     245925
#     266567
#     292697
#     322373
# 
# Disc length: 4682
# 
# Revision: 14
# Processed by: cddbd v1.5.2PL0 Copyright (c) Steve Scherf et al.
# Submitted via: fre:ac v1.0.31
# 
DISCID=df12480f
DTITLE=Eric Clapton - Crossroads Guitar Festival Disc 2
DYEAR=2013
DGENRE=Rock/Pop
TTITLE0=Congo Square
TTITLE1=Change It
TTITLE2=Ooh-Ooh-Ooh
TTITLE3=Save The Last Dance For Me
TTITLE4=Don't Worry Baby
TTITLE5=I Ain't Living Long Like This
TTITLE6=Diving Duck Blues
TTITLE7=When My Train Pulls In
TTITLE8=Mná Na Héireann
TTITLE9=The Needle And The Damage Done
TTITLE10=Midnight Rider
TTITLE11=Key To The Highway
TTITLE12=Gin House Blues
TTITLE13=Got To Get Better In A Little While
TTITLE14=Sunshine Of Your Love
EXTD=CD2
EXTT0=
EXTT1=
EXTT2=
EXTT3=
EXTT4=
EXTT5=
EXTT6=
EXTT7=
EXTT8=
EXTT9=
EXTT10=
EXTT11=
EXTT12=
EXTT13=
EXTT14=
PLAYORDER=
